<svg width="13" height="17" viewBox="0 0 13 17" fill="none" xmlns="http://www.w3.org/2000/svg">
<g opacity="0.5">
<path d="M6.5 0C2.91579 0 0 2.8655 0 6.38654C0 11.6601 6.06721 16.7239 6.32558 16.9369C6.37385 16.9773 6.4351 16.9996 6.49852 17C6.56194 17.0004 6.62347 16.9788 6.67225 16.939C6.93062 16.7297 13 11.7531 13 6.38654C13 2.8655 10.0842 0 6.5 0ZM6.50108 16.3823C5.50388 15.5084 0.541667 10.9323 0.541667 6.38654C0.541667 3.15768 3.21479 0.531238 6.5 0.531238C9.78521 0.531238 12.4583 3.15768 12.4583 6.38654C12.4583 11.0094 7.501 15.5201 6.50108 16.3823Z" fill="white"/>
<path d="M6.5 3.18743C4.70763 3.18743 3.25 4.61699 3.25 6.37485C3.25 8.13272 4.70763 9.56228 6.5 9.56228C8.29238 9.56228 9.75 8.13272 9.75 6.37485C9.75 4.61699 8.29238 3.18743 6.5 3.18743ZM6.5 9.03104C5.00663 9.03104 3.79167 7.83948 3.79167 6.37485C3.79167 4.91023 5.00663 3.71866 6.5 3.71866C7.99338 3.71866 9.20833 4.91023 9.20833 6.37485C9.20833 7.83948 7.99338 9.03104 6.5 9.03104Z" fill="white"/>
</g>
</svg>
