<svg width="20" height="20" viewBox="0 0 20 20" fill="none" xmlns="http://www.w3.org/2000/svg">
<path d="M14.017 0H5.947C4.37015 0.00185307 2.85844 0.629143 1.74353 1.74424C0.628623 2.85933 0.00158794 4.37115 0 5.948V14.018C0.00185307 15.5948 0.629143 17.1066 1.74424 18.2215C2.85933 19.3364 4.37115 19.9634 5.948 19.965H14.018C15.5948 19.9631 17.1066 19.3359 18.2215 18.2208C19.3364 17.1057 19.9634 15.5938 19.965 14.017V5.947C19.9631 4.37015 19.3359 2.85844 18.2208 1.74353C17.1057 0.628623 15.5938 0.00158794 14.017 0ZM17.957 14.017C17.957 14.5344 17.8551 15.0468 17.6571 15.5248C17.4591 16.0028 17.1689 16.4371 16.803 16.803C16.4371 17.1689 16.0028 17.4591 15.5248 17.6571C15.0468 17.8551 14.5344 17.957 14.017 17.957H5.947C4.90222 17.9567 3.90032 17.5415 3.16165 16.8026C2.42297 16.0638 2.008 15.0618 2.008 14.017V5.947C2.00827 4.90222 2.42349 3.90032 3.16235 3.16165C3.90122 2.42297 4.90322 2.008 5.948 2.008H14.018C15.0628 2.00827 16.0647 2.42349 16.8034 3.16235C17.542 3.90122 17.957 4.90322 17.957 5.948V14.017Z" fill="url(#paint0_linear)"/>
<path d="M9.982 4.819C8.61343 4.82112 7.30153 5.36579 6.3339 6.33361C5.36627 7.30143 4.82185 8.61343 4.82 9.982C4.82159 11.3509 5.36602 12.6633 6.3339 13.6314C7.30178 14.5995 8.61408 15.1441 9.983 15.146C11.3521 15.1444 12.6647 14.5998 13.6327 13.6317C14.6008 12.6637 15.1454 11.3511 15.147 9.982C15.1449 8.61308 14.5999 7.30088 13.6317 6.33319C12.6634 5.3655 11.3509 4.82132 9.982 4.82V4.819ZM9.982 13.138C9.14524 13.138 8.34276 12.8056 7.75108 12.2139C7.1594 11.6222 6.827 10.8198 6.827 9.983C6.827 9.14624 7.1594 8.34376 7.75108 7.75208C8.34276 7.1604 9.14524 6.828 9.982 6.828C10.8188 6.828 11.6212 7.1604 12.2129 7.75208C12.8046 8.34376 13.137 9.14624 13.137 9.983C13.137 10.8198 12.8046 11.6222 12.2129 12.2139C11.6212 12.8056 10.8188 13.138 9.982 13.138Z" fill="url(#paint1_linear)"/>
<path d="M15.156 6.095C15.8392 6.095 16.393 5.54118 16.393 4.858C16.393 4.17482 15.8392 3.621 15.156 3.621C14.4728 3.621 13.919 4.17482 13.919 4.858C13.919 5.54118 14.4728 6.095 15.156 6.095Z" fill="url(#paint2_linear)"/>
<defs>
<linearGradient id="paint0_linear" x1="-5" y1="3.0533e-07" x2="20" y2="18" gradientUnits="userSpaceOnUse">
<stop stop-color="#00DBDE"/>
<stop offset="1" stop-color="#FC00FF"/>
</linearGradient>
<linearGradient id="paint1_linear" x1="-5" y1="3.0533e-07" x2="20" y2="18" gradientUnits="userSpaceOnUse">
<stop stop-color="#00DBDE"/>
<stop offset="1" stop-color="#FC00FF"/>
</linearGradient>
<linearGradient id="paint2_linear" x1="-5" y1="3.0533e-07" x2="20" y2="18" gradientUnits="userSpaceOnUse">
<stop stop-color="#00DBDE"/>
<stop offset="1" stop-color="#FC00FF"/>
</linearGradient>
</defs>
</svg>
