<svg width="42" height="53" viewBox="0 0 42 53" fill="none" xmlns="http://www.w3.org/2000/svg">
<path d="M20.9929 0.00173728C12.7367 -0.110262 4.78158 5.20379 1.64992 12.8313C-1.62112 20.3257 0.0784729 29.6354 5.80034 35.4803C11.3035 41.4047 20.3707 43.5792 27.9644 40.8072C35.8343 38.127 41.6444 30.3974 41.9602 22.078C42.49 13.9032 37.681 5.74747 30.3177 2.18657C27.4344 0.747553 24.2147 -0.00287073 20.9929 0.00173728ZM20.9929 2.27169C29.1475 2.12984 36.9031 7.98825 39.0085 15.8671C41.2108 23.2878 38.232 31.8795 31.8384 36.2746C25.197 41.1567 15.3481 40.8035 9.07644 35.4539C2.75728 30.415 0.495326 21.0947 3.73748 13.7036C6.54754 6.87073 13.6013 2.18496 20.9929 2.27169ZM29.0396 12.0515L24.2679 21.7256L18.3348 14.0074L12.9461 29.9462L18.9874 22.18L25.2192 29.3115L29.0396 12.0515ZM18.8624 17.1557L24.5039 24.3089L25.9129 21.1719L24.564 26.5997L18.8059 19.8252L16.4698 23.4371L18.8624 17.1557Z" fill="#0B0B0B"/>
<rect y="51" width="42" height="2" fill="#D36500"/>
</svg>