<svg width="33" height="34" viewBox="0 0 33 34" fill="none" xmlns="http://www.w3.org/2000/svg">
<path d="M28.7223 4.6807H14.3193V12.7801H21.1082C23.5382 12.7801 25.6569 13.2008 27.4642 14.0421C29.2715 14.8834 30.646 16.0765 31.5876 17.6215C32.5293 19.1664 33.0001 20.9561 33.0001 22.9905C33.0001 26.111 31.9445 28.6196 29.8335 30.5163C27.7376 32.4131 24.8747 33.3768 21.2449 33.4074H8.55566V0L28.7223 0V4.6807ZM14.3193 17.4379V28.7725H21.0854C23.0294 28.7725 24.5406 28.2448 25.6189 27.1894C26.7124 26.1186 27.2592 24.7037 27.2592 22.9446C27.2592 21.262 26.7276 19.9312 25.6645 18.9522C24.6013 17.9733 23.1281 17.4685 21.2449 17.4379H14.3193Z" fill="#545454"/>
<rect y="33.4073" width="33.4074" height="4.07407" transform="rotate(-90 0 33.4073)" fill="#D39800"/>
</svg>
