<svg width="56" height="48" viewBox="0 0 56 48" fill="none" xmlns="http://www.w3.org/2000/svg">
<rect x="3" y="46" width="50" height="2" fill="#D36500"/>
<path d="M45.43 5.49141L41.265 1.40078C40.3432 0.503441 39.0979 -9.9567e-06 37.8 1.47688e-10H17.955C16.66 1.47688e-10 15.4088 0.507032 14.49 1.40078L10.325 5.49141H0V27.4656H5.6C7.14 27.4656 8.3825 26.2453 8.39125 24.7414H9.1875L16.59 31.307C19.2938 33.4641 23.0475 33.5156 25.83 31.6336C26.9237 32.5617 28.105 33 29.4262 33C31.0187 33 32.515 32.3641 33.6963 30.9375C35.63 31.6852 37.9137 31.1609 39.2962 29.4938L41.5887 26.718C42.0787 26.125 42.385 25.4461 42.5425 24.7414H47.6087C47.6175 26.2453 48.8687 27.4656 50.4 27.4656H56V5.49141H45.43ZM4.2 24.7156C3.43 24.7156 2.8 24.0969 2.8 23.3406C2.8 22.5844 3.43 21.9656 4.2 21.9656C4.97 21.9656 5.6 22.5844 5.6 23.3406C5.6 24.1055 4.97 24.7156 4.2 24.7156ZM38.325 24.1227L36.0412 26.8898C35.7962 27.182 35.3587 27.2336 35.0525 26.993L32.9613 25.3258L30.3363 28.4625C29.8113 29.0898 29.0238 28.875 28.7613 28.6688L25.5412 25.9617L24.1762 27.6117C22.96 29.0812 20.7463 29.3047 19.3375 28.1789L10.8237 20.6164H8.4V9.60781H12.0662L17.465 4.31406C17.64 4.24531 17.7887 4.18516 17.9638 4.11641H22.925L19.5387 7.16719C16.9662 9.47891 16.8175 13.3805 19.1537 15.8727C20.4487 17.2648 24.5087 19.4133 28.035 16.2508L28.7525 15.6063L38.22 23.1516C38.5175 23.3922 38.5612 23.8305 38.325 24.1227ZM47.6 20.6164H41.545C41.3438 20.3758 41.1162 20.1523 40.8713 19.9547L31.885 12.7875L32.9787 11.8078C33.5475 11.2922 33.5912 10.4242 33.0662 9.86563L32.1125 8.86016C31.5875 8.30156 30.7037 8.26719 30.135 8.77422L25.305 13.1227C24.4738 13.8703 23.0562 13.9305 22.2775 13.1227C21.4638 12.2719 21.5338 10.9656 22.3825 10.2094L28.1225 5.04453C28.77 4.46016 29.61 4.14219 30.485 4.14219L37.8088 4.125C37.9925 4.125 38.1675 4.19375 38.29 4.32266L43.6887 9.61641H47.6V20.6164ZM51.8 24.7156C51.03 24.7156 50.4 24.0969 50.4 23.3406C50.4 22.5844 51.03 21.9656 51.8 21.9656C52.57 21.9656 53.2 22.5844 53.2 23.3406C53.2 24.1055 52.57 24.7156 51.8 24.7156Z" fill="#0B0B0B"/>
</svg>