<svg width="42" height="53" viewBox="0 0 42 53" fill="none" xmlns="http://www.w3.org/2000/svg">
<rect y="51" width="42" height="2" fill="#D36500"/>
<path d="M26.6666 4.1H6.11111V36.9H34.8888V12.3H26.6666V4.1ZM2 2.0336C2 0.9102 2.91883 0 4.0535 0H28.7222L39 10.25V38.9356C39.0018 39.2049 38.9506 39.4718 38.849 39.7213C38.7474 39.9707 38.5976 40.1977 38.4081 40.3894C38.2185 40.5811 37.993 40.7337 37.7443 40.8385C37.4957 40.9432 37.2287 40.9981 36.9588 41H4.04116C3.50133 40.9962 2.98465 40.7809 2.60272 40.4003C2.2208 40.0198 2.00431 39.5048 2 38.9664V2.0336ZM20.5 19.475C19.1371 19.475 17.83 18.935 16.8662 17.9739C15.9025 17.0128 15.3611 15.7092 15.3611 14.35C15.3611 12.9908 15.9025 11.6872 16.8662 10.7261C17.83 9.76495 19.1371 9.225 20.5 9.225C21.8629 9.225 23.17 9.76495 24.1337 10.7261C25.0974 11.6872 25.6389 12.9908 25.6389 14.35C25.6389 15.7092 25.0974 17.0128 24.1337 17.9739C23.17 18.935 21.8629 19.475 20.5 19.475ZM11.3055 30.75C11.5547 28.4917 12.6307 26.4046 14.3273 24.8885C16.024 23.3724 18.2219 22.534 20.5 22.534C22.778 22.534 24.976 23.3724 26.6726 24.8885C28.3693 26.4046 29.4453 28.4917 29.6945 30.75H11.3055Z" fill="white"/>
</svg>