<svg width="17" height="17" viewBox="0 0 17 17" fill="none" xmlns="http://www.w3.org/2000/svg">
<path opacity="0.5" d="M3.41889 7.35722C4.77889 10.03 6.97 12.2211 9.64278 13.5811L11.7206 11.5033C11.985 11.2389 12.3533 11.1633 12.6839 11.2672C13.7417 11.6167 14.875 11.8056 16.0556 11.8056C16.306 11.8056 16.5463 11.9051 16.7234 12.0822C16.9005 12.2593 17 12.4995 17 12.75V16.0556C17 16.306 16.9005 16.5463 16.7234 16.7234C16.5463 16.9005 16.306 17 16.0556 17C11.7974 17 7.71356 15.3084 4.70256 12.2974C1.69156 9.28644 0 5.20264 0 0.944444C0 0.693962 0.0995036 0.453739 0.276621 0.276621C0.453739 0.0995036 0.693962 0 0.944444 0H4.25C4.50048 0 4.74071 0.0995036 4.91782 0.276621C5.09494 0.453739 5.19444 0.693962 5.19444 0.944444C5.19444 2.125 5.38333 3.25833 5.73278 4.31611C5.83667 4.64667 5.76111 5.015 5.49667 5.27944L3.41889 7.35722Z" fill="white"/>
</svg>
